<svg xmlns="http://www.w3.org/2000/svg" width="80" height="60" fill="none"><path fill="#CF649A" d="M68.868 34.454c-2.797.015-5.22.688-7.25 1.688-.75-1.485-1.5-2.783-1.626-3.752-.14-1.126-.312-1.814-.14-3.158.171-1.345.953-3.253.953-3.409-.016-.14-.172-.829-1.782-.844-1.61-.016-3 .312-3.156.735a17.95 17.95 0 0 0-.672 2.392c-.282 1.47-3.22 6.676-4.891 9.412-.547-1.063-1.016-2.001-1.11-2.752-.14-1.125-.312-1.813-.14-3.158.171-1.345.953-3.252.953-3.408-.016-.141-.172-.83-1.781-.845-1.61-.015-3 .313-3.157.735-.156.422-.328 1.423-.672 2.392-.328.97-4.235 9.663-5.25 11.93a48.325 48.325 0 0 1-1.297 2.705c-.329.625-.016.047-.047.11l-.438.828v.016c-.219.39-.453.766-.563.766-.078 0-.234-1.048.032-2.486.578-3.018 1.984-7.724 1.969-7.896 0-.078.265-.907-.907-1.329-1.14-.422-1.547.282-1.64.282-.094 0-.172.25-.172.25s1.265-5.3-2.423-5.3c-2.312 0-5.5 2.517-7.078 4.815-1 .547-3.125 1.704-5.376 2.94-.86.469-1.75.969-2.594 1.422l-.171-.188C13.972 34.58 5.706 31.202 6.05 24.791c.125-2.33.937-8.474 15.876-15.917C34.162 2.777 43.96 4.45 45.663 8.171c2.422 5.316-5.235 15.197-17.955 16.62-4.844.547-7.391-1.329-8.032-2.032-.672-.735-.765-.767-1.015-.626-.407.219-.157.876 0 1.267.374.985 1.937 2.736 4.594 3.611 2.328.766 8.016 1.189 14.892-1.47C45.85 22.556 51.867 14.27 50.1 7.343 48.304.291 36.615-2.023 25.567 1.902c-6.579 2.344-13.704 6.003-18.83 10.803C.643 18.396-.326 23.368.081 25.432c1.422 7.364 11.563 12.164 15.626 15.714-.203.109-.39.218-.563.312-2.031 1-9.766 5.05-11.704 9.334-2.187 4.847.344 8.334 2.032 8.803 5.219 1.454 10.563-1.157 13.454-5.457 2.875-4.3 2.531-9.881 1.203-12.43l-.047-.093 1.594-.939a95.875 95.875 0 0 1 2.938-1.657c-.5 1.36-.86 2.97-1.047 5.316-.219 2.752.906 6.317 2.39 7.724.657.61 1.438.625 1.923.625 1.719 0 2.5-1.423 3.36-3.127 1.062-2.08 2-4.487 2-4.487s-1.172 6.52 2.031 6.52c1.172 0 2.344-1.517 2.875-2.299v.016s.032-.047.094-.156c.066-.097.128-.196.188-.297v-.032c.469-.813 1.515-2.673 3.078-5.753 2.016-3.972 3.953-8.944 3.953-8.944s.188 1.22.766 3.221c.344 1.189 1.094 2.486 1.672 3.753-.469.656-.75 1.032-.75 1.032l.016.015c-.375.5-.797 1.032-1.235 1.564-1.594 1.907-3.5 4.08-3.75 4.706-.297.735-.234 1.282.344 1.72.422.313 1.172.375 1.969.313 1.437-.094 2.437-.454 2.938-.673a10.174 10.174 0 0 0 2.53-1.329c1.564-1.157 2.517-2.798 2.423-4.987-.047-1.204-.438-2.392-.922-3.518.14-.203.282-.407.422-.625 2.469-3.612 4.375-7.584 4.375-7.584s.188 1.22.766 3.221c.297 1.017.89 2.127 1.422 3.221-2.313 1.892-3.766 4.081-4.266 5.52-.922 2.658-.203 3.861 1.156 4.143.61.125 1.485-.156 2.141-.438a9.701 9.701 0 0 0 2.704-1.391c1.562-1.157 3.062-2.768 2.984-4.941-.047-1-.312-1.986-.672-2.924 1.97-.813 4.516-1.282 7.751-.891 6.954.813 8.329 5.16 8.063 6.973-.265 1.814-1.719 2.815-2.203 3.127-.485.297-.64.407-.594.626.063.328.281.312.703.25.578-.094 3.657-1.485 3.782-4.831.187-4.3-3.891-8.991-11.126-8.944Zm-53.63 18.09c-2.297 2.517-5.532 3.47-6.907 2.658-1.484-.86-.906-4.566 1.922-7.24 1.72-1.626 3.954-3.127 5.423-4.049.328-.203.828-.5 1.422-.86.093-.062.156-.094.156-.094.11-.062.234-.14.36-.219 1.046 3.815.046 7.161-2.376 9.804Zm16.798-11.43c-.797 1.955-2.484 6.974-3.5 6.692-.875-.234-1.406-4.034-.172-7.786.625-1.892 1.953-4.144 2.735-5.02 1.266-1.406 2.64-1.876 2.985-1.297.406.75-1.548 6.192-2.048 7.411Zm13.861 6.63c-.344.172-.656.297-.797.203-.11-.063.14-.297.14-.297s1.735-1.86 2.423-2.72c.39-.5.86-1.08 1.36-1.736v.188c0 2.25-2.157 3.752-3.126 4.362Zm10.688-2.44c-.25-.187-.218-.766.625-2.58.329-.718 1.079-1.922 2.376-3.064.156.47.25.923.234 1.345-.016 2.814-2.016 3.862-3.235 4.3Z"/></svg>