<svg xmlns="http://www.w3.org/2000/svg" width="53" height="60" fill="none"><path fill="#72716D" d="m26.5 30 26.249 15.015a1.859 1.859 0 0 1-.685.678L27.53 59.727a2.077 2.077 0 0 1-2.06 0L.936 45.693a1.86 1.86 0 0 1-.685-.678L26.5 30Z"/><path fill="#55544F" d="M26.5 0v30L.251 45.015A1.843 1.843 0 0 1 0 44.088V15.912c0-.662.357-1.273.936-1.605L25.469.273A2.076 2.076 0 0 1 26.499 0h.001Z"/><path fill="#43413C" d="M52.748 14.985a1.86 1.86 0 0 0-.685-.678L27.53.273A2.068 2.068 0 0 0 26.5 0v30l26.249 15.015c.161-.277.251-.597.251-.927V15.912c0-.332-.089-.649-.251-.927h-.001Z"/><path fill="#D6D5D2" d="M50.912 16.036a.855.855 0 0 1 0 .87L27.085 57.794c-.16.276-.586.163-.586-.156V30.695c0-.215-.058-.422-.164-.603l24.576-14.057v.001Z"/><path fill="#fff" d="M50.912 16.036 26.337 30.093a1.207 1.207 0 0 0-.446-.44L2.341 16.18c-.279-.158-.164-.58.157-.58h47.653a.87.87 0 0 1 .76.435Z"/></svg>