<svg xmlns="http://www.w3.org/2000/svg" width="54" height="60" fill="none"><path fill="#99425B" d="M50.62 29.541c0-3.084-2.486-5.584-5.552-5.584-.197 0-.392.01-.584.03L52.11 1.365H19.708l7.614 22.604a5.583 5.583 0 0 0-.338-.011c-3.065 0-5.55 2.5-5.55 5.585a5.583 5.583 0 0 0 3.865 5.322 24.37 24.37 0 0 1-4.365 5.526c-2.3 2.183-4.932 3.838-7.779 4.858-3.389-1.752-4.99-5.648-3.545-9.063.163-.386.33-.777.488-1.166a5.579 5.579 0 0 0 4.286-5.437c0-3.085-2.486-5.585-5.552-5.585-3.065 0-5.55 2.5-5.55 5.585 0 1.891.935 3.562 2.365 4.572-1.374 3.147-3.394 6.441-4.023 10.258-.754 4.575-.003 9.432 3.93 12.175 9.16 6.386 19.103-3.96 29.586-6.561 3.8-.943 7.97-.79 11.317-2.741 2.514-1.465 4.171-3.892 4.641-6.617.465-2.693-.212-5.373-1.77-7.547a5.582 5.582 0 0 0 1.291-3.58Z"/><path fill="#fff" d="M49.763 40.434c-.409 2.366-1.861 4.433-3.985 5.67-1.98 1.154-4.353 1.499-6.865 1.863-1.346.195-2.738.398-4.097.735-3.595.892-7.077 2.632-10.444 4.314-6.739 3.368-12.558 6.275-18.045 2.45-4.02-2.803-3.834-7.989-3.366-10.83.434-2.633 1.608-5.058 2.742-7.402.193-.399.385-.798.575-1.198.572.23 1.172.381 1.784.45-1.155 3.835.662 8.005 4.474 9.975l.522.27.552-.198c3.014-1.08 5.791-2.813 8.254-5.15a25.865 25.865 0 0 0 4.087-4.97 6.89 6.89 0 0 0 1.033.077c3.5 0 6.397-2.631 6.845-6.03a61.077 61.077 0 0 1 4.394 0c.448 3.399 3.346 6.03 6.845 6.03 1.463 0 2.82-.46 3.938-1.244.776 1.598 1.066 3.397.757 5.188ZM8.833 25.361c2.313 0 4.195 1.893 4.195 4.22a4.22 4.22 0 0 1-.662 2.273 4.192 4.192 0 0 1-3.533 1.949c-.516 0-1.01-.095-1.466-.267a4.226 4.226 0 0 1-2.73-3.954c0-2.328 1.882-4.221 4.196-4.221Zm13.956 4.18a4.22 4.22 0 0 1 3.573-4.173 4.178 4.178 0 0 1 3.933 1.587 4.216 4.216 0 0 1 .77 3.567 4.214 4.214 0 0 1-4.08 3.24 4.151 4.151 0 0 1-2.274-.676 4.227 4.227 0 0 1-1.922-3.544Zm17.51-5.019a6.964 6.964 0 0 0-1.9 3.214 64.074 64.074 0 0 0-4.745 0 6.97 6.97 0 0 0-2.081-3.381l4.341-8.832 4.385 9ZM21.6 2.728h28.619l-6.76 20.057c-.29.07-.577.16-.856.267L35.925 9.348 29.229 22.97c-.292-.1-.59-.182-.893-.242l-6.737-20Zm27.664 26.814a4.236 4.236 0 0 1-1.795 3.46 4.154 4.154 0 0 1-2.4.76c-1.937 0-3.571-1.327-4.052-3.126a4.236 4.236 0 0 1 .182-2.723 4.23 4.23 0 0 1 .396-.731 4.185 4.185 0 0 1 3.867-1.842c2.13.2 3.802 2.008 3.802 4.202Zm2.712 0c0-3.393-2.43-6.223-5.63-6.828L54 0H17.817l7.667 22.76a6.95 6.95 0 0 0-5.406 6.782 6.959 6.959 0 0 0 3.265 5.9 23.253 23.253 0 0 1-3.34 3.956c-2.03 1.927-4.291 3.388-6.73 4.35-2.455-1.552-3.493-4.48-2.415-7.03l.243-.574a6.957 6.957 0 0 0 4.638-6.562c0-3.832-3.098-6.95-6.906-6.95-3.809 0-6.908 3.118-6.908 6.95 0 1.934.79 3.685 2.062 4.946-.237.506-.478 1.01-.722 1.512-1.163 2.402-2.48 5.125-2.979 8.15-.99 6.005.607 10.806 4.496 13.517C7.142 59.353 9.54 60 11.95 60c4.541 0 9.135-2.295 13.628-4.54 3.236-1.617 6.582-3.29 9.887-4.11 1.23-.305 2.495-.488 3.835-.683 2.656-.385 5.403-.784 7.837-2.202 2.82-1.643 4.751-4.4 5.297-7.564.469-2.716-.095-5.436-1.47-7.743a6.938 6.938 0 0 0 1.01-3.616Z"/></svg>