<svg width="500" height="500" viewBox="100 68 315 372" fill="none" xmlns="http://www.w3.org/2000/svg">
<path d="M131.915 216.148C121.481 208.97 113.77 202.493 108.792 190.255C103.827 178.048 104.22 162.399 109.481 150.337C118.851 128.854 141.498 115.48 162.52 107.442C168.981 104.972 175.157 103.285 181.64 101.1C183.538 100.46 187.715 98.004 189.706 96.9717C193.535 95.0067 197.46 93.2362 201.467 91.667C231.072 80.0215 274.523 75.4175 305.858 81.9815C317.298 84.3775 325.858 87.6169 336.411 92.1999C338.396 91.8889 342.351 92.0612 344.541 92.0817C348.441 92.114 352.341 92.1157 356.243 92.0867L407.913 92.1187L407.976 249.999L381.088 249.982C377.116 249.98 372.033 250.135 368.153 249.993C368.641 261.885 368.308 276.045 368.306 288.07L368.313 368.257L287.413 368.272L262.771 368.27C259.376 368.27 252.906 368.45 249.819 368.127C250.091 357.5 250.161 346.87 250.023 336.24C250.003 329.545 250.173 322.32 250.021 315.685C237.93 315.972 225.779 315.655 213.683 315.795C209.794 315.84 205.893 315.54 202.012 315.84C201.71 315.862 201.379 316.535 201.273 316.762C194.321 315.512 187.201 315.517 180.251 316.777L179.77 316.017C179.012 315.547 136.015 315.77 131.743 315.765L131.705 242.224C131.704 237.987 131.168 219.01 131.915 216.148Z" fill="black"/>
<path d="M250.005 250.038C289.158 249.492 328.913 250.26 368.153 249.993C368.64 261.885 368.308 276.045 368.305 288.07L368.313 368.258L287.413 368.273L262.77 368.27C259.375 368.27 252.905 368.45 249.818 368.128C250.09 357.5 250.16 346.87 250.023 336.24C250.003 329.545 250.173 322.32 250.02 315.685C250.27 294.005 250.128 271.735 250.005 250.038Z" fill="#D4EB98"/>
<path d="M292.992 262.78C295.787 262.463 297.017 262.93 299.407 264.528C305.997 268.935 315.434 287.443 316.787 295.13C319.162 291.375 320.869 287.378 323.369 283.473C327.007 277.79 333.029 267.85 340.612 267.238C343.812 266.98 345.437 270.603 345.122 273.513C343.907 284.768 335.119 293.543 327.047 300.718C332.742 301.743 354.789 307.535 357.079 311.55C361.747 319.733 345.622 319.05 340.969 317.745C336.532 316.5 330.119 315.595 325.912 314.51C329.379 319.623 340.762 338.598 339.032 344.148C336.089 353.585 326.844 343.355 324.257 339.14C321.332 333.908 314.882 320.773 313.954 315.11C309.299 323.383 305.037 331.543 299.089 339.2C297.102 343.028 286.102 351.115 282.254 346.648C274.749 337.935 296.757 316.385 301.832 310.82C297.554 310.728 287.429 309.06 283.117 308.178C278.112 306.97 265.902 305.11 263.402 300.085C259.292 291.815 272.039 292.05 276.029 292.125C286.492 292.325 295.092 294.585 304.919 297.398C298.812 291.013 288.782 277.175 289.479 267.723C289.634 265.628 291.317 263.94 292.992 262.78Z" fill="black"/>
<path d="M131.915 216.148C136.122 218.491 140.698 220.979 145.164 222.768C176.953 235.503 216.043 237.228 249.98 236.818C249.979 240.952 249.837 245.978 250.006 250.037C250.128 271.735 250.271 294.005 250.021 315.685C237.93 315.972 225.779 315.655 213.683 315.795C209.793 315.84 205.893 315.54 202.012 315.84C201.71 315.862 201.379 316.535 201.272 316.762C194.321 315.512 187.201 315.517 180.251 316.777L179.77 316.017C179.012 315.547 136.015 315.77 131.743 315.765L131.705 242.224C131.704 237.987 131.168 219.01 131.915 216.148Z" fill="#F796F9"/>
<path d="M336.409 92.2C338.394 91.889 342.349 92.0612 344.539 92.0817C348.439 92.114 352.339 92.1157 356.242 92.0867L407.912 92.1187L407.974 249.999L381.087 249.982C377.114 249.98 372.032 250.135 368.152 249.993C328.912 250.26 289.157 249.492 250.004 250.037C249.836 245.978 249.978 240.952 249.979 236.818C269.444 236.745 288.412 235.035 307.449 230.606C337.622 223.561 370.519 207.674 379.287 175.197C387.424 145.044 374.507 115.849 348.647 99.2652C344.637 96.6937 340.577 94.7625 336.649 92.3487L336.409 92.2Z" fill="#FEC700"/>
<path d="M309.635 106.954C327.005 110.933 345.538 117.706 355.048 133.404C369.155 156.694 360.735 183.838 337.83 197.051C312.613 211.598 278.37 217.43 249.96 217.094L250.003 197.51C250.005 195.033 250.303 179.768 249.791 178.288C251.868 176.98 255.513 175.225 257.878 173.828C263.268 170.623 268.413 167.025 273.273 163.063C272.953 171.256 271.258 188.903 276.8 195.36C277.78 196.503 279.168 197.299 280.698 197.348C281.888 197.386 283.025 196.872 283.88 196.06C288.14 192.019 289.17 165.345 289.408 158.517C289.585 153.434 290.065 140.287 286.52 136.791C282.398 132.729 256.158 131.82 250.02 131.7L250.015 111.561C252.59 111.823 255.383 111.91 257.89 112.24C269.628 113.784 281.3 116.246 291.948 121.583C299.54 125.304 306.863 130.319 315.048 132.618C318.223 133.51 322.468 133.688 324.953 131.335C335.07 121.76 315.813 110.752 309.635 106.954Z" fill="#FEC700"/>
<path d="M154.689 131.846C147.097 155.564 152.002 178.397 177.717 187.243C200.882 195.211 228.268 188.51 249.791 178.288C250.303 179.768 250.006 195.033 250.003 197.51L249.961 217.094C218.877 216.9 183.253 215.074 153.892 203.528C150.828 202.324 145.314 199.789 142.788 197.926C129.689 190.992 122.41 178.019 125.934 163.326C128.579 152.298 136.432 143.875 145.534 137.558C148.52 135.485 151.63 133.762 154.689 131.846Z" fill="white"/>
<path d="M142.787 197.926C144.005 197.093 149.541 197.431 151.341 197.427L174 197.43L222.213 197.397C231.341 197.391 240.928 197.197 250.002 197.51L249.96 217.094C218.876 216.9 183.252 215.074 153.891 203.528C150.827 202.324 145.313 199.789 142.787 197.926Z" fill="#F796F9"/>
<path d="M250.332 155.299C246.452 156.787 242.12 158.956 238.316 160.617C220.834 168.248 169.412 184.906 171.126 150.234C171.805 136.503 178.355 124.832 190.99 118.687C194.63 116.916 199.969 116.448 203.902 115.47C219.293 112.318 234.338 111.076 250.015 111.561L250.02 131.7C241.235 131.556 224.708 130.945 216.746 132.882C215.087 133.285 213.436 133.949 212.161 135.116C211.102 136.085 210.415 137.383 210.443 138.84C210.474 140.412 211.027 141.847 212.214 142.891C217.399 147.45 242.047 148.699 250.08 149.461C250.03 151.132 249.864 153.733 250.332 155.299Z" fill="white"/>
<path d="M250.079 149.461C253.642 149.72 257.129 149.989 260.699 150.098C258.144 151.396 252.762 154.335 250.332 155.299C249.863 153.732 250.029 151.131 250.079 149.461Z" fill="#FEC700"/>
<path d="M180.249 316.777C187.2 315.517 194.319 315.513 201.271 316.763C231.427 322.185 252.459 349.725 249.748 380.245C247.037 410.765 221.48 434.167 190.84 434.19C160.201 434.21 134.612 410.843 131.859 380.325C129.107 349.81 150.101 322.24 180.249 316.777Z" fill="#A259FD"/>
</svg>
