<svg width="673" height="685" viewBox="155 128 398 410" fill="none" xmlns="http://www.w3.org/2000/svg">
<path d="M401.606 315.153C404.984 314.863 407.44 314.995 410.564 316.736C413.658 318.46 415.942 321.342 416.909 324.748C418.291 329.739 417.18 347.969 417.04 353.752C416.795 368.368 414.598 382.837 413.046 397.33C409.373 431.627 394.247 514.63 354.65 524.888C346.144 527.085 337.113 525.814 329.547 521.346C322.388 517.001 316.193 511.235 311.344 504.408C302.25 491.799 293.886 468.118 290.065 452.916C287.276 441.414 276.002 410.716 301.808 414.937C310.824 416.412 311.076 428.152 313.003 435.467C317.468 452.411 327 493.09 346.425 498.21C346.816 498.103 347.208 497.99 347.596 497.873C362.3 493.411 373.903 456.906 377.436 443.226C386.661 407.485 390.451 369.994 390.511 333.137C390.524 323.492 390.986 318.102 401.606 315.153Z" fill="black"/>
<path d="M253.09 271.367C266.91 269.406 274.572 291.067 261.126 297.231C254.023 300.487 245.925 301.536 238.309 303.303C233.405 304.493 228.542 305.849 223.73 307.37C212.661 310.924 191.68 319.721 185.424 329.606C179.564 338.864 205.904 351.029 211.901 353.34C242.315 365.05 276.973 370.131 309.402 372.532C317.14 373.098 324.89 373.482 332.645 373.69C337.721 373.833 346.652 373.415 351.02 375.369C354.352 376.827 356.961 379.563 358.262 382.958C361.811 392.356 356.389 398.544 347.903 401.498C344.632 401.993 340.019 401.755 336.57 401.625C301.146 400.293 265.21 396.999 230.803 388.249C210.859 383.643 191.87 376.402 175.278 364.271C157.326 351.146 151.257 328.039 166.384 310.173C184.995 288.192 225.3 275.281 253.09 271.367Z" fill="black"/>
<path d="M346.726 263.993C354.094 263.597 362.223 264.042 369.578 264.222C392.27 264.779 415.016 267.063 437.303 271.44C446.08 273.164 458.129 275.065 466.655 277.693C484.734 283.211 500.412 289.219 515.798 300.35C533.657 313.272 540.491 336.192 526.211 354.591C512.153 372.706 485.293 382.543 463.701 388.283C456.035 390.32 449.111 392.269 441.016 393.032C438.48 393.072 435.467 393.052 433.129 391.758C423.291 386.316 423.676 369.853 434.788 366.254C438.935 364.913 444.17 364.167 448.599 363.267C452.472 362.481 456.299 361.481 460.062 360.277C474.897 355.554 500.385 347.738 507.998 333.014C507.747 332.275 506.985 330.016 506.58 329.455C500.643 321.392 490.949 316.967 482.225 312.968C470.331 307.515 459.848 304.975 447.304 302.005C434.226 298.908 422.428 296.947 409.085 295.352C395.234 293.807 381.332 292.752 367.404 292.187C360.744 291.86 345.09 292.39 340.089 288.802C337.199 286.75 335.236 283.635 334.637 280.14C333.208 271.467 338.263 265.257 346.726 263.993Z" fill="black"/>
<path d="M345.445 139.285C365.471 138.646 377.195 151.667 386.828 167.9C390.13 173.458 394.261 182.761 396.619 188.832C401.195 200.607 404.61 213.74 407.731 225.979C409.922 235.304 412.915 243.669 402.549 249.522C396.164 253.126 387.166 249.854 384.534 243.238C380.617 233.388 379.991 221.772 376.308 211.702C373.398 203.872 370.679 195.123 366.939 187.622C363.277 180.278 357.567 170.148 349.612 166.926C347.907 166.258 344.679 166.345 343.17 167.508C327.536 179.549 319.521 207.962 314.947 225.758C308.737 247.631 305.753 275.4 304.679 298.3C304.419 303.714 304.221 309.13 304.087 314.547C304.015 318.353 304.062 321.854 303.777 325.759C302.921 337.486 289.756 342.343 280.955 335.095C278.5 333.073 277.315 329.478 277.298 326.251C277.241 315.524 277.448 304.703 278.163 293.993C280.643 253.36 286.88 210.139 305.291 173.392C308.973 166.042 312.556 159.578 318.133 153.455C326.272 144.518 333.353 139.984 345.445 139.285Z" fill="black"/>
</svg>
