<svg xmlns="http://www.w3.org/2000/svg" width="60" height="60" fill="none"><path fill="#007ACC" d="M0 30V0h60v60H0"/><path fill="#fff" d="M13.155 30.105v2.445h7.8v22.2h5.535v-22.2h7.8v-2.4c0-1.35 0-2.445-.06-2.475 0-.045-4.755-.06-10.53-.06l-10.5.045v2.46l-.045-.015ZM48.21 27.6c1.53.36 2.7 1.05 3.75 2.145.555.6 1.38 1.65 1.44 1.92 0 .09-2.595 1.845-4.17 2.82-.06.045-.3-.21-.54-.6-.78-1.11-1.575-1.59-2.82-1.68-1.8-.12-3 .825-3 2.4 0 .48.09.75.27 1.14.405.825 1.155 1.32 3.48 2.34 4.29 1.845 6.15 3.06 7.275 4.8 1.275 1.95 1.56 5.01.705 7.305-.96 2.505-3.3 4.2-6.645 4.755-1.05.18-3.45.15-4.575-.045-2.4-.45-4.695-1.65-6.105-3.195-.555-.6-1.62-2.205-1.56-2.31l.57-.36 2.25-1.305 1.695-.99.39.525c.495.78 1.605 1.83 2.25 2.19 1.95 1.005 4.56.87 5.85-.3.555-.51.795-1.05.795-1.8 0-.69-.105-1.005-.45-1.53-.48-.66-1.44-1.2-4.14-2.4-3.105-1.32-4.425-2.16-5.655-3.45-.705-.78-1.35-1.995-1.65-3-.225-.87-.3-3-.09-3.855.645-3 2.91-5.1 6.15-5.7 1.05-.21 3.525-.12 4.56.15l-.03.03Z"/></svg>