<svg xmlns="http://www.w3.org/2000/svg" width="60" height="60" fill="none"><path fill="#F7DF1E" d="M0 0h60v60H0V0Z"/><path fill="#000" d="m15.776 50.14 4.592-2.778c.886 1.57 1.691 2.899 3.624 2.899 1.853 0 3.021-.725 3.021-3.544V27.546h5.639v19.251c0 5.84-3.424 8.498-8.418 8.498-4.51 0-7.129-2.336-8.458-5.155m19.938-.604 4.591-2.658c1.209 1.974 2.78 3.424 5.558 3.424 2.337 0 3.827-1.169 3.827-2.78 0-1.933-1.53-2.618-4.108-3.745l-1.41-.605c-4.068-1.731-6.766-3.906-6.766-8.497 0-4.23 3.222-7.452 8.256-7.452 3.585 0 6.163 1.25 8.015 4.511l-4.39 2.82c-.967-1.732-2.014-2.416-3.625-2.416-1.651 0-2.698 1.047-2.698 2.416 0 1.691 1.047 2.377 3.463 3.424l1.41.604c4.793 2.054 7.491 4.148 7.491 8.86 0 5.075-3.987 7.854-9.344 7.854-5.236 0-8.619-2.497-10.27-5.76"/></svg>