<svg xmlns="http://www.w3.org/2000/svg" width="53" height="60" fill="none"><path fill="#000" fill-rule="evenodd" d="M45.712 0v18.18H52.5v25.87h-7.337V60L27.57 44.515v15.362h-2.727v-15.38L7.23 60V43.837H0V17.97h7.21V0l17.633 16.235V.475h2.724V16.7L45.712 0ZM27.57 22.61v18.297l14.865 13.086V36.1L27.57 22.61Zm-2.747-.2L9.957 35.905v18.087l14.866-13.084V22.41Zm20.34 18.95h4.61V20.872H29.9l15.263 13.85v6.638Zm-22.455-20.7H2.724v20.488h4.5v-6.44l15.48-14.05.003.002ZM9.938 6.19v11.775h12.787L9.937 6.19Zm33.047 0L30.198 17.965h12.787V6.19Z" clip-rule="evenodd"/></svg>