<svg xmlns="http://www.w3.org/2000/svg" width="60" height="60" fill="none"><path fill="#2684FF" d="M57.493 0H28.601a13.043 13.043 0 0 0 13.042 13.043h5.323v5.139c.004 7.196 5.837 13.03 13.034 13.034V2.506A2.507 2.507 0 0 0 57.493 0Z"/><path fill="url(#a)" d="M43.197 14.396H14.305c.004 7.197 5.837 13.03 13.034 13.035h5.322v5.155c.01 7.197 5.846 13.026 13.043 13.026V16.903a2.507 2.507 0 0 0-2.507-2.507Z"/><path fill="url(#b)" d="M28.893 28.784H0c0 7.204 5.84 13.043 13.043 13.043h5.339v5.139c.005 7.19 5.827 13.02 13.018 13.034V31.291a2.507 2.507 0 0 0-2.507-2.507Z"/><defs><linearGradient id="a" x1="15017.8" x2="9021.31" y1="27.624" y2="6994.38" gradientUnits="userSpaceOnUse"><stop offset=".18" stop-color="#0052CC"/><stop offset="1" stop-color="#2684FF"/></linearGradient><linearGradient id="b" x1="8070.39" x2="4464.88" y1="69.399" y2="4042.36" gradientUnits="userSpaceOnUse"><stop offset=".18" stop-color="#0052CC"/><stop offset="1" stop-color="#2684FF"/></linearGradient></defs></svg>