<svg xmlns="http://www.w3.org/2000/svg" width="67" height="60" fill="none"><path fill="#61DAFB" d="M67 30.007c0-4.463-5.558-8.693-14.08-11.316C54.886 9.957 54.012 3.008 50.16.783c-.888-.522-1.925-.77-3.059-.77v3.063c.628 0 1.134.124 1.557.357 1.857 1.071 2.663 5.15 2.035 10.396a42.31 42.31 0 0 1-.697 4.038c-2.676-.66-5.599-1.168-8.672-1.497-1.843-2.54-3.755-4.848-5.68-6.867 4.451-4.16 8.63-6.44 11.47-6.44V0c-3.755 0-8.671 2.692-13.642 7.36C28.502 2.721 23.585.056 19.83.056v3.062c2.827 0 7.02 2.266 11.471 6.4a64.786 64.786 0 0 0-5.64 6.853c-3.086.33-6.009.838-8.686 1.51a41.646 41.646 0 0 1-.71-3.982c-.642-5.246.15-9.325 1.994-10.41.41-.247.942-.357 1.57-.357V.07c-1.147 0-2.184.247-3.086.769-3.837 2.224-4.698 9.16-2.717 17.866C5.53 21.341 0 25.557 0 30.008 0 34.47 5.558 38.7 14.08 41.323c-1.966 8.734-1.092 15.683 2.759 17.908.888.522 1.925.769 3.073.769 3.755 0 8.672-2.692 13.643-7.361 4.97 4.642 9.887 7.306 13.643 7.306 1.147 0 2.185-.247 3.086-.769 3.838-2.225 4.698-9.16 2.718-17.867C61.469 38.686 67 34.456 67 30.007Zm-17.781-9.16a62.113 62.113 0 0 1-1.844 5.424 65.141 65.141 0 0 0-1.789-3.296 74.468 74.468 0 0 0-1.966-3.213 61.01 61.01 0 0 1 5.599 1.085Zm-6.255 14.626a73.203 73.203 0 0 1-3.291 5.246 70.681 70.681 0 0 1-6.173.274 76.18 76.18 0 0 1-6.145-.26 75.768 75.768 0 0 1-3.306-5.22 71.69 71.69 0 0 1-2.84-5.465 71.72 71.72 0 0 1 2.827-5.48 73.167 73.167 0 0 1 3.291-5.245 70.677 70.677 0 0 1 6.173-.275c2.062 0 4.124.096 6.145.26a75.768 75.768 0 0 1 3.305 5.22 71.69 71.69 0 0 1 2.841 5.465 77.02 77.02 0 0 1-2.827 5.48Zm4.411-1.786a59.117 59.117 0 0 1 1.885 5.466c-1.79.44-3.674.81-5.627 1.099a75.942 75.942 0 0 0 1.967-3.255 78.185 78.185 0 0 0 1.775-3.31ZM33.527 48.341a56.538 56.538 0 0 1-3.796-4.395c1.229.055 2.485.096 3.755.096 1.284 0 2.554-.027 3.797-.096a53.525 53.525 0 0 1-3.756 4.395Zm-10.16-8.09a61.343 61.343 0 0 1-5.6-1.084 62.07 62.07 0 0 1 1.844-5.425 65.136 65.136 0 0 0 1.79 3.296 91.007 91.007 0 0 0 1.966 3.214Zm10.092-28.578a56.498 56.498 0 0 1 3.797 4.395 83.968 83.968 0 0 0-3.756-.096c-1.284 0-2.554.027-3.797.096a53.508 53.508 0 0 1 3.756-4.395Zm-10.106 8.089a75.977 75.977 0 0 0-3.742 6.55 59.058 59.058 0 0 1-1.884-5.465 65.965 65.965 0 0 1 5.626-1.085Zm-12.36 17.194c-4.834-2.074-7.961-4.793-7.961-6.95 0-2.155 3.127-4.888 7.962-6.948 1.174-.508 2.458-.961 3.783-1.387.778 2.692 1.802 5.493 3.072 8.363-1.256 2.857-2.267 5.645-3.031 8.323a41.306 41.306 0 0 1-3.824-1.401Zm7.348 19.624c-1.857-1.07-2.663-5.15-2.035-10.395.15-1.291.396-2.651.697-4.038 2.676.66 5.599 1.167 8.672 1.497 1.843 2.54 3.755 4.848 5.68 6.866-4.451 4.162-8.63 6.441-11.47 6.441-.615-.014-1.134-.137-1.544-.37Zm32.394-10.464c.642 5.246-.15 9.325-1.994 10.41-.41.247-.942.357-1.57.357-2.828 0-7.02-2.266-11.472-6.4a64.77 64.77 0 0 0 5.64-6.853c3.086-.33 6.009-.838 8.686-1.51.314 1.387.56 2.719.71 3.996Zm5.258-9.16c-1.175.508-2.459.961-3.783 1.387-.779-2.692-1.803-5.493-3.073-8.364 1.256-2.856 2.267-5.644 3.032-8.322a43.5 43.5 0 0 1 3.837 1.4c4.835 2.075 7.962 4.794 7.962 6.95-.014 2.156-3.14 4.889-7.975 6.949Z"/><path fill="#61DAFB" d="M33.486 36.283c3.447 0 6.242-2.81 6.242-6.276 0-3.466-2.795-6.276-6.242-6.276-3.446 0-6.24 2.81-6.24 6.276 0 3.466 2.794 6.276 6.24 6.276Z"/></svg>