<svg xmlns="http://www.w3.org/2000/svg" width="60" height="60" fill="none"><path fill="#000" d="M58.67 28.53a14.881 14.881 0 0 1 .989 9.323 14.893 14.893 0 0 1-1.732 4.427c-.532.92-1.16 1.782-1.882 2.576-.717.788-1.516 1.5-2.384 2.126a15.333 15.333 0 0 1-5.858 2.545 14.95 14.95 0 0 1-2.18 4.233 15.06 15.06 0 0 1-3.399 3.351A15.507 15.507 0 0 1 33.184 60a15.753 15.753 0 0 1-3.201-.32 15.531 15.531 0 0 1-3.056-.98 14.998 14.998 0 0 1-5.154-3.733 15.554 15.554 0 0 1-4.812.256 15.606 15.606 0 0 1-4.653-1.232 15.245 15.245 0 0 1-4.032-2.588 15.347 15.347 0 0 1-3.024-3.696 15.31 15.31 0 0 1-1.319-2.895 14.8 14.8 0 0 1-.666-6.271c.115-1.05.35-2.088.685-3.095a15.312 15.312 0 0 1-2.624-3.977 15.013 15.013 0 0 1-1.243-4.583 14.883 14.883 0 0 1 .254-4.74c.336-1.556.919-3.05 1.73-4.426.533-.92 1.16-1.788 1.877-2.576.716-.788 1.521-1.5 2.39-2.126a15.178 15.178 0 0 1 5.858-2.545 15.011 15.011 0 0 1 2.174-4.233 15.377 15.377 0 0 1 3.405-3.357A15.62 15.62 0 0 1 22.058.732 15.5 15.5 0 0 1 26.813 0a15.427 15.427 0 0 1 6.264 1.294c.982.438 1.914.97 2.782 1.595a15.065 15.065 0 0 1 2.378 2.138 15.557 15.557 0 0 1 9.452.975c1.47.651 2.834 1.52 4.032 2.59a15.081 15.081 0 0 1 3.024 3.688c.539.913.983 1.882 1.319 2.895.336 1.007.564 2.045.672 3.101a14.822 14.822 0 0 1-.691 6.277 15.05 15.05 0 0 1 2.624 3.978ZM37.545 55.224a11.377 11.377 0 0 0 3.696-2.439 11.163 11.163 0 0 0 2.472-3.651c.57-1.363.869-2.826.869-4.302V30.888a.59.59 0 0 1-.013-.044.158.158 0 0 0-.02-.037.114.114 0 0 0-.03-.032.1.1 0 0 0-.039-.025l-5.116-2.913V44.68c0 .169-.025.344-.07.507a1.839 1.839 0 0 1-.196.475 1.81 1.81 0 0 1-.317.406 2.037 2.037 0 0 1-.412.313l-12.115 6.896c-.102.063-.273.15-.361.2.5.42 1.046.788 1.616 1.113.577.325 1.173.6 1.794.826a11.6 11.6 0 0 0 3.88.67 11.486 11.486 0 0 0 4.362-.864ZM8.694 45.756a11.384 11.384 0 0 0 6.923 5.234 11.541 11.541 0 0 0 8.647-1.12l12.248-6.97.032-.031a.08.08 0 0 0 .019-.038.158.158 0 0 0 .019-.037v-5.878L21.798 45.35c-.152.088-.31.15-.475.2a2.073 2.073 0 0 1-.52.063c-.171 0-.343-.02-.514-.063a2.296 2.296 0 0 1-.482-.2L7.694 38.447a12.79 12.79 0 0 1-.356-.212 11.142 11.142 0 0 0-.17 1.944 11.15 11.15 0 0 0 .69 3.827c.229.612.507 1.2.837 1.763v-.013ZM5.512 19.683a11.204 11.204 0 0 0-1.427 4.158 11.091 11.091 0 0 0 .292 4.377 11.171 11.171 0 0 0 1.965 3.933 11.414 11.414 0 0 0 3.341 2.889l12.242 6.977a.62.62 0 0 0 .044.013h.045a.08.08 0 0 0 .044-.013.164.164 0 0 0 .038-.018l5.135-2.927-14.784-8.416a2.455 2.455 0 0 1-.412-.312 2.016 2.016 0 0 1-.317-.407 2.094 2.094 0 0 1-.196-.475 1.684 1.684 0 0 1-.064-.506v-14.2c-.621.225-1.223.5-1.794.826a11.9 11.9 0 0 0-1.616 1.125c-.501.419-.97.882-1.395 1.382a10.859 10.859 0 0 0-1.129 1.594h-.012Zm42.05 9.654c.152.088.292.188.419.313.12.119.228.256.317.406.082.15.152.313.196.476.038.168.063.337.057.512v14.2a11.35 11.35 0 0 0 5.123-3.733 11.12 11.12 0 0 0 1.046-12.017 11.263 11.263 0 0 0-4.406-4.534l-12.242-6.977a.606.606 0 0 0-.045-.013h-.044a.62.62 0 0 1-.044.013.158.158 0 0 0-.038.018l-5.11 2.914 14.784 8.422h-.013Zm5.104-7.565h-.007v.006l.007-.006Zm-.007-.007c.368-2.1.12-4.264-.716-6.233a11.275 11.275 0 0 0-3.994-4.89A11.54 11.54 0 0 0 41.92 8.63a11.603 11.603 0 0 0-6.188 1.494l-12.241 6.972a.113.113 0 0 0-.032.031l-.025.037a.643.643 0 0 0-.013.044.138.138 0 0 0-.006.044v5.827l14.784-8.422a2.34 2.34 0 0 1 .481-.2 2.06 2.06 0 0 1 .514-.062c.177 0 .349.018.52.062.165.05.323.113.475.2l12.115 6.903c.108.063.267.15.355.206Zm-32.034-6.452a1.988 1.988 0 0 1 .584-1.388c.12-.12.26-.225.412-.307l12.115-6.896c.114-.069.272-.157.36-.2a11.415 11.415 0 0 0-5.838-2.514 11.5 11.5 0 0 0-6.289.97 11.35 11.35 0 0 0-4.786 4.151 11.154 11.154 0 0 0-1.775 6.034v13.943a.546.546 0 0 0 .013.044.13.13 0 0 0 .019.037.245.245 0 0 0 .031.038.147.147 0 0 0 .038.025l5.116 2.913v-16.85Zm2.777 18.426 6.587 3.752 6.587-3.752v-7.497l-6.58-3.751-6.588 3.751-.006 7.497Z"/></svg>