<svg xmlns="http://www.w3.org/2000/svg" width="204" height="60" fill="none"><path fill="#333" d="M33.038 17.01h-6.124l-8.846 23.024h5.544l1.437-3.917h8.367l-1.512-4.297h-5.52l3.58-9.907 6.375 18.12h5.544L33.038 17.01Zm93.066 23.024V17.01h4.914v18.702h9.702v4.322h-14.616Zm28.35 0V17.01h4.94v18.702h9.702v4.322h-14.642ZM98.836 21.129c4.083 0 7.384 3.311 7.384 7.405 0 4.095-3.301 7.406-7.383 7.406-4.083 0-7.384-3.311-7.384-7.406 0-4.094 3.326-7.405 7.383-7.405Zm0-4.499c-6.552 0-11.869 5.333-11.869 11.904 0 6.572 5.317 11.904 11.87 11.904 6.552 0 11.869-5.333 11.869-11.904 0-6.57-5.317-11.904-11.87-11.904Zm92.89 4.5c4.083 0 7.384 3.31 7.384 7.404 0 4.095-3.301 7.406-7.384 7.406-4.082 0-7.384-3.311-7.384-7.406 0-4.094 3.302-7.405 7.384-7.405Zm0-4.5c-6.552 0-11.869 5.333-11.869 11.904 0 6.572 5.317 11.904 11.869 11.904s11.87-5.333 11.87-11.904c0-6.57-5.318-11.904-11.87-11.904Zm-124.819.38h-10.71v23.024h4.889v-7.936h5.821c4.083 0 7.384-3.463 7.384-7.557 0-4.069-3.301-7.532-7.384-7.532Zm0 10.59h-5.821v-6.092h5.821c1.588 0 2.898 1.44 2.898 3.033 0 1.592-1.31 3.058-2.898 3.058Z"/><path fill="#333" d="M51.989 47.01c-.428 0-.806.202-1.033.53 0 0-1.11 1.264-1.689 1.87a27.45 27.45 0 0 1-8.694 5.89c-3.377 1.44-6.955 2.147-10.66 2.147-3.704 0-7.283-.733-10.66-2.148-3.25-1.39-6.2-3.361-8.694-5.889a27.538 27.538 0 0 1-5.872-8.72C3.251 37.305 2.545 33.716 2.545 30s.731-7.304 2.142-10.69a26.783 26.783 0 0 1 5.847-8.72 27.449 27.449 0 0 1 8.694-5.89c3.377-1.44 6.955-2.147 10.66-2.147 3.704 0 7.283.733 10.66 2.148A27.412 27.412 0 0 1 47.1 8.644a3.27 3.27 0 0 0-.176 1.01 3.102 3.102 0 0 0 3.1 3.11 3.102 3.102 0 0 0 3.099-3.11 3.102 3.102 0 0 0-3.1-3.108c-.428 0-.831.076-1.184.253C43.673 2.553 37.095 0 29.888 0 13.382 0 0 13.42 0 30s13.382 30 29.913 30c9.249 0 17.49-4.196 22.983-10.817a1.29 1.29 0 0 0 .378-.885c-.025-.707-.605-1.289-1.285-1.289Z"/></svg>