<svg xmlns="http://www.w3.org/2000/svg" width="99" height="60" fill="none"><path fill="#252F3E" d="M27.9 21.792c0 1.235.133 2.235.364 2.97.264.734.591 1.535 1.053 2.402.166.267.232.534.232.768 0 .334-.198.667-.625 1.002l-2.075 1.401c-.297.201-.592.3-.856.3-.33 0-.658-.167-.988-.467a10.276 10.276 0 0 1-1.186-1.57 25.76 25.76 0 0 1-1.021-1.967c-2.568 3.069-5.796 4.605-9.681 4.605-2.766 0-4.973-.801-6.586-2.403-1.613-1.602-2.436-3.738-2.436-6.408 0-2.835.988-5.139 2.997-6.873 2.01-1.735 4.676-2.604 8.067-2.604 1.12 0 2.272.1 3.49.267 1.216.168 2.468.434 3.786.735v-2.436c0-2.536-.526-4.305-1.547-5.34-1.054-1.035-2.832-1.536-5.366-1.536a14.7 14.7 0 0 0-3.556.435c-1.22.3-2.403.666-3.556 1.134a9.542 9.542 0 0 1-1.153.435 2.02 2.02 0 0 1-.526.099c-.462 0-.69-.333-.69-1.035V4.071c0-.534.065-.933.23-1.167.165-.234.462-.468.922-.702 1.153-.6 2.535-1.1 4.15-1.502 1.613-.435 3.325-.634 5.136-.634 3.918 0 6.783.9 8.627 2.703 1.81 1.803 2.733 4.539 2.733 8.209V21.79l.062.002Zm-13.368 5.07c1.086 0 2.206-.2 3.39-.6 1.186-.4 2.24-1.134 3.13-2.136.525-.633.921-1.335 1.119-2.136.198-.8.33-1.77.33-2.903v-1.402a26.879 26.879 0 0 0-3.03-.567 24.7 24.7 0 0 0-3.096-.2c-2.206 0-3.82.434-4.906 1.335-1.087.9-1.613 2.169-1.613 3.837 0 1.569.396 2.736 1.219 3.537.79.836 1.943 1.235 3.457 1.235Zm26.44 3.606c-.591 0-.987-.1-1.251-.334-.264-.2-.493-.666-.691-1.301L31.29 3.038c-.198-.666-.297-1.1-.297-1.335 0-.534.264-.834.79-.834h3.228c.625 0 1.054.1 1.285.333.264.201.46.667.658 1.302l5.531 22.092 5.136-22.092c.165-.666.363-1.1.625-1.302.264-.2.724-.333 1.318-.333h2.634c.625 0 1.053.1 1.318.333.264.201.492.667.624 1.302l5.202 22.36 5.697-22.36c.197-.666.428-1.1.657-1.302.264-.2.691-.333 1.285-.333h3.063c.526 0 .823.267.823.834 0 .168-.033.334-.066.534a4.813 4.813 0 0 1-.23.834l-7.935 25.795c-.198.666-.43 1.1-.691 1.302-.262.2-.691.333-1.252.333h-2.832c-.625 0-1.054-.1-1.318-.333-.264-.234-.493-.667-.625-1.335L50.817 7.308 45.747 28.8c-.165.666-.363 1.1-.625 1.334-.264.234-.724.334-1.318.334h-2.832Zm42.31.9c-1.712 0-3.424-.2-5.07-.6-1.645-.4-2.93-.834-3.786-1.335-.526-.3-.89-.633-1.021-.933a2.373 2.373 0 0 1-.198-.934v-1.701c0-.702.264-1.035.757-1.035.198 0 .396.033.592.1.198.066.493.2.823.332 1.12.501 2.337.9 3.621 1.168 1.318.267 2.601.4 3.92.4 2.074 0 3.687-.367 4.807-1.102 1.12-.735 1.712-1.803 1.712-3.17 0-.934-.297-1.702-.89-2.337-.591-.634-1.711-1.2-3.324-1.735l-4.775-1.502c-2.403-.768-4.18-1.902-5.267-3.405-1.087-1.467-1.646-3.102-1.646-4.839 0-1.4.297-2.637.889-3.704a8.562 8.562 0 0 1 2.37-2.737c.987-.767 2.107-1.335 3.423-1.734C81.537.168 82.92 0 84.37 0c.724 0 1.48.033 2.207.132.757.1 1.448.234 2.14.367a24.9 24.9 0 0 1 1.878.534c.592.2 1.053.4 1.384.6.462.267.79.534.987.834.198.267.297.633.297 1.101v1.569c0 .702-.264 1.068-.757 1.068-.263 0-.69-.133-1.251-.4-1.877-.867-3.985-1.301-6.322-1.301-1.877 0-3.358.3-4.379.933-1.02.633-1.546 1.602-1.546 2.97 0 .933.33 1.734.987 2.37.658.633 1.877 1.269 3.622 1.836l4.676 1.502c2.37.768 4.084 1.836 5.102 3.204 1.02 1.368 1.514 2.937 1.514 4.671 0 1.435-.297 2.737-.856 3.87-.592 1.135-1.384 2.137-2.403 2.938-1.02.834-2.24 1.434-3.654 1.868-1.487.468-3.034.702-4.713.702Z"/><path fill="#F90" d="M89.505 47.586C78.673 55.696 62.934 60 49.4 60 30.435 60 13.346 52.893.439 41.079c-1.021-.933-.1-2.202 1.12-1.467 13.96 8.208 31.18 13.181 48.994 13.181 12.018 0 25.222-2.535 37.37-7.742 1.813-.834 3.36 1.2 1.582 2.535Zm4.51-5.205c-1.384-1.803-9.153-.867-12.676-.435-1.054.133-1.219-.8-.264-1.502 6.19-4.405 16.364-3.138 17.55-1.669 1.186 1.503-.33 11.814-6.124 16.752-.889.768-1.745.367-1.35-.633 1.317-3.303 4.248-10.746 2.864-12.513Z"/></svg>