<svg xmlns="http://www.w3.org/2000/svg" width="62" height="60" fill="none"><path fill="url(#a)" d="M2.248 45.804c-.64 1.053-1.361 2.276-1.973 3.25a1.995 1.995 0 0 0 .661 2.701l12.825 7.949a1.961 1.961 0 0 0 2.732-.676c.513-.864 1.174-1.987 1.894-3.19 5.08-8.444 10.19-7.41 19.404-2.98l12.716 6.09a1.96 1.96 0 0 0 1.536.069c.5-.187.903-.57 1.118-1.062l6.106-13.91a1.993 1.993 0 0 0-.986-2.602 1545.59 1545.59 0 0 1-12.825-6.14c-17.283-8.455-31.972-7.909-43.208 10.501Z"/><path fill="url(#b)" d="M59.752 14.238c.64-1.053 1.361-2.275 1.973-3.248a1.995 1.995 0 0 0-.661-2.703L48.239.34a1.961 1.961 0 0 0-2.811.656c-.513.864-1.174 1.987-1.894 3.189-5.08 8.445-10.19 7.412-19.404 2.98l-12.677-6.06a1.96 1.96 0 0 0-1.535-.068c-.5.187-.903.57-1.118 1.062L2.693 16.007a1.993 1.993 0 0 0 .987 2.603c2.683 1.272 8.02 3.805 12.824 6.14 17.323 8.445 32.012 7.879 43.248-10.512Z"/><defs><linearGradient id="a" x1="6146.69" x2="2249.46" y1="6762.48" y2="2138.7" gradientUnits="userSpaceOnUse"><stop offset=".18" stop-color="#0052CC"/><stop offset="1" stop-color="#2684FF"/></linearGradient><linearGradient id="b" x1="57.581" x2="1513.25" y1="-377.421" y2="2934.77" gradientUnits="userSpaceOnUse"><stop offset=".18" stop-color="#0052CC"/><stop offset="1" stop-color="#2684FF"/></linearGradient></defs></svg>