<svg xmlns="http://www.w3.org/2000/svg" width="60" height="60" fill="none"><path fill="#D97757" d="m11.77 39.9 11.806-6.62.199-.575-.199-.32h-.575l-1.973-.121-6.746-.183-5.85-.243-5.669-.303-1.426-.304L0 29.47l.138-.88 1.199-.805 1.718.15 9.493.652 4.132.243 6.122.636h.973l.138-.393-.333-.243-.259-.243-5.895-3.993-6.381-4.219-3.343-2.43-1.807-1.23-.912-1.154-.393-2.519 1.641-1.806 2.204.15.564.15 2.232 1.717L16 16.942l6.227 4.583.912.757.364-.259.045-.182-.41-.684-3.387-6.118-3.614-6.224-1.608-2.58-.425-1.546c-.15-.636-.26-1.17-.26-1.822L15.712.332 16.745 0l2.492.332 1.05.911 1.547 3.539 2.508 5.572 3.89 7.576 1.138 2.247.608 2.081.227.636h.393v-.365l.32-4.267.591-5.24.575-6.742.2-1.899.939-2.275L35.091.875l1.458.696 1.2 1.717-.166 1.11-.713 4.632-1.398 7.256-.912 4.859h.53l.609-.608 2.459-3.263 4.133-5.163 1.823-2.049L46.24 7.8l1.365-1.077h2.581l1.9 2.822-.85 2.915-2.658 3.369-2.205 2.855-3.16 4.251-1.973 3.401.182.272.47-.045 7.14-1.518 3.856-.697 4.603-.79 2.083.973.226.988-.818 2.02-4.923 1.215-5.773 1.154-8.598 2.032-.105.078.122.15 3.873.364 1.657.089h4.056l7.552.563 1.973 1.303L60 36.082l-.199 1.215-3.038 1.546-13.67-3.247-3.282-.818h-.454v.271l2.735 2.673 5.012 4.523 6.276 5.83.32 1.442-.806 1.138-.851-.122-5.514-4.146L44.4 44.52l-4.817-4.053h-.32v.425l1.11 1.624 5.863 8.807.304 2.7-.426.88-1.52.53-1.668-.304-3.432-4.814-3.541-5.422-2.857-4.86-.348.2-1.686 18.143-.79.928L28.45 60l-1.52-1.154-.805-1.867.806-3.688.972-4.815.79-3.826.713-4.754.426-1.58-.029-.104-.348.044-3.586 4.92-5.453 7.365-4.315 4.616-1.033.41-1.79-.928.165-1.656 1-1.474 5.973-7.592 3.602-4.705 2.325-2.717-.016-.393h-.138L10.328 46.395l-2.824.364-1.216-1.138.15-1.866.575-.608 4.769-3.28-.016.017.004.016Z"/></svg>