<svg xmlns="http://www.w3.org/2000/svg" width="60" height="60" fill="none"><path fill="#E01E5A" d="M12.606 37.915c0 3.47-2.834 6.303-6.303 6.303-3.47 0-6.303-2.834-6.303-6.303s2.834-6.303 6.303-6.303h6.303v6.303Zm3.176 0c0-3.469 2.834-6.303 6.303-6.303s6.303 2.834 6.303 6.303v15.782c0 3.47-2.834 6.303-6.303 6.303-3.47 0-6.303-2.834-6.303-6.303V37.915Z"/><path fill="#36C5F0" d="M22.085 12.606c-3.47 0-6.303-2.834-6.303-6.303 0-3.47 2.834-6.303 6.303-6.303s6.303 2.834 6.303 6.303v6.303h-6.303Zm0 3.176c3.469 0 6.303 2.834 6.303 6.303s-2.834 6.303-6.303 6.303H6.303C2.833 28.388 0 25.554 0 22.085c0-3.47 2.834-6.303 6.303-6.303h15.782Z"/><path fill="#2EB67D" d="M47.394 22.085c0-3.47 2.834-6.303 6.303-6.303 3.47 0 6.303 2.834 6.303 6.303s-2.834 6.303-6.303 6.303h-6.303v-6.303Zm-3.176 0c0 3.469-2.834 6.303-6.303 6.303s-6.303-2.834-6.303-6.303V6.303c0-3.47 2.834-6.303 6.303-6.303 3.47 0 6.303 2.834 6.303 6.303v15.782Z"/><path fill="#ECB22E" d="M37.915 47.394c3.47 0 6.303 2.834 6.303 6.303 0 3.47-2.834 6.303-6.303 6.303s-6.303-2.834-6.303-6.303v-6.303h6.303Zm0-3.176c-3.469 0-6.303-2.834-6.303-6.303s2.834-6.303 6.303-6.303h15.782c3.47 0 6.303 2.834 6.303 6.303 0 3.47-2.834 6.303-6.303 6.303H37.915Z"/></svg>