<svg xmlns="http://www.w3.org/2000/svg" width="57" height="60" fill="none"><path fill="#fff" d="M3.583 2.588 36.535.136c4.048-.35 5.088-.114 7.633 1.75l10.519 7.466c1.735 1.284 2.312 1.634 2.312 3.032v40.945c0 2.566-.924 4.084-4.162 4.315L14.57 59.98c-2.43.115-3.587-.234-4.86-1.868L1.965 47.964C.575 46.096 0 44.698 0 43.064V6.668c0-2.098.925-3.847 3.583-4.08Z"/><path fill="#000" fill-rule="evenodd" d="M36.535.137 3.583 2.588C.925 2.821 0 4.57 0 6.668v36.396c0 1.633.576 3.031 1.965 4.9l7.746 10.148c1.273 1.634 2.43 1.984 4.86 1.868l38.266-2.335c3.236-.232 4.163-1.75 4.163-4.316V12.384c0-1.325-.52-1.708-2.05-2.84L44.168 1.887c-2.544-1.864-3.585-2.1-7.633-1.75ZM15.436 11.714c-3.125.212-3.833.26-5.608-1.194L5.316 6.905c-.458-.468-.228-1.052.927-1.168l31.678-2.333c2.66-.234 4.046.7 5.086 1.517l5.433 3.966c.232.118.81.816.115.816L15.84 11.687l-.405.027ZM11.793 52.98V18.22c0-1.517.463-2.218 1.848-2.335l37.574-2.217c1.274-.115 1.85.7 1.85 2.216v34.528c0 1.518-.232 2.802-2.312 2.917l-35.956 2.1c-2.08.116-3.003-.582-3.003-2.45Zm35.493-32.896c.23 1.05 0 2.1-1.042 2.22l-1.733.346v25.663c-1.505.816-2.89 1.283-4.047 1.283-1.85 0-2.313-.584-3.699-2.332L25.433 29.3v17.38l3.584.818s0 2.1-2.892 2.1l-7.974.466c-.232-.468 0-1.634.808-1.866l2.083-.582v-22.98l-2.89-.236c-.233-1.05.345-2.566 1.965-2.683l8.556-.58 11.791 18.195V23.235l-3.005-.348c-.233-1.286.692-2.22 1.847-2.334l7.98-.469Z" clip-rule="evenodd"/></svg>