<svg xmlns="http://www.w3.org/2000/svg" width="44" height="60" fill="none"><path fill="#5382A1" d="M14.17 46.401s-2.279 1.334 1.623 1.785c4.728.542 7.144.465 12.354-.527 0 0 1.37.864 3.282 1.612-11.679 5.034-26.432-.292-17.258-2.87Zm-1.426-6.569s-2.557 1.904 1.348 2.31c5.05.524 9.038.567 15.94-.77 0 0 .954.974 2.454 1.506-14.12 4.153-29.848.328-19.742-3.046Z"/><path fill="#E76F00" d="M24.775 28.69c2.877 3.331-.756 6.33-.756 6.33s7.306-3.794 3.95-8.545c-3.133-4.43-5.537-6.63 7.475-14.22 0 0-20.424 5.13-10.67 16.434Z"/><path fill="#5382A1" d="M40.22 51.26s1.688 1.398-1.857 2.48c-6.741 2.054-28.058 2.674-33.98.082-2.128-.931 1.864-2.224 3.12-2.495 1.309-.286 2.057-.233 2.057-.233-2.367-1.677-15.301 3.294-6.57 4.717 23.813 3.884 43.407-1.749 37.23-4.55ZM15.268 33.026s-10.843 2.59-3.84 3.53c2.957.399 8.852.309 14.343-.154 4.487-.38 8.993-1.19 8.993-1.19s-1.583.681-2.727 1.468C21.025 39.592-.246 38.237 5.878 35.258c5.178-2.518 9.389-2.232 9.389-2.232Zm19.45 10.934c11.194-5.85 6.019-11.47 2.407-10.713-.886.185-1.28.346-1.28.346s.328-.518.956-.742c7.146-2.527 12.642 7.452-2.307 11.404 0 0 .173-.155.225-.294Z"/><path fill="#E76F00" d="M27.97 0s6.199 6.237-5.88 15.826c-9.685 7.693-2.208 12.08-.004 17.09-5.653-5.13-9.802-9.646-7.019-13.849C19.153 12.897 30.471 9.907 27.97 0Z"/><path fill="#5382A1" d="M16.367 59.811c10.744.692 27.242-.383 27.633-5.496 0 0-.751 1.938-8.88 3.477-9.17 1.736-20.48 1.533-27.188.42 0 0 1.373 1.144 8.435 1.6Z"/></svg>