<svg xmlns="http://www.w3.org/2000/svg" width="63" height="60" fill="none"><path fill="#764ABC" d="M43.652 41.904c2.325-.242 4.089-2.253 4.009-4.666-.08-2.412-2.085-4.343-4.49-4.343h-.16c-2.486.08-4.41 2.172-4.33 4.665.081 1.207.562 2.252 1.283 2.976-2.725 5.389-6.894 9.33-13.147 12.627-4.25 2.253-8.659 3.057-13.068 2.494-3.608-.483-6.414-2.091-8.178-4.746-2.565-3.94-2.805-8.203-.64-12.466 1.523-3.056 3.927-5.308 5.45-6.434-.32-1.046-.801-2.815-1.042-4.102-11.624 8.445-10.422 19.866-6.894 25.254 2.645 4.022 8.017 6.515 13.95 6.515 1.603 0 3.206-.16 4.81-.563 10.262-2.01 18.038-8.123 22.447-17.212Zm14.11-9.974C51.67 24.772 42.69 20.831 32.428 20.831h-1.282a4.404 4.404 0 0 0-3.928-2.413h-.161c-2.485.08-4.409 2.172-4.329 4.665a4.51 4.51 0 0 0 4.49 4.343h.16a4.517 4.517 0 0 0 3.928-2.734h1.443c6.093 0 11.865 1.769 17.077 5.227 4.008 2.655 6.894 6.113 8.498 10.295 1.362 3.378 1.282 6.676-.161 9.491-2.245 4.263-6.012 6.595-10.983 6.595-3.207 0-6.253-.965-7.857-1.689-.882.805-2.485 2.091-3.608 2.896C39.163 59.115 42.69 60 46.057 60c7.697 0 13.389-4.263 15.554-8.526 2.324-4.664 2.164-12.707-3.849-19.544ZM17.036 43.27a4.51 4.51 0 0 0 4.49 4.344h.16c2.485-.08 4.409-2.172 4.329-4.665-.08-2.413-2.085-4.343-4.49-4.343h-.16c-.16 0-.401 0-.561.08-3.287-5.47-4.65-11.42-4.169-17.855.32-4.826 1.924-9.008 4.73-12.467 2.325-2.976 6.815-4.423 9.861-4.504 8.498-.16 12.105 10.456 12.346 14.719 1.042.241 2.806.804 4.009 1.206C46.618 6.756 38.6 0 30.905 0 23.69 0 17.035 5.228 14.39 12.95c-3.688 10.294-1.283 20.187 3.207 27.988-.4.563-.641 1.448-.561 2.332Z"/></svg>