<svg xmlns="http://www.w3.org/2000/svg" width="40" height="60" fill="none"><path fill="#1ABCFE" d="M20 30c0-5.523 4.477-10 10-10s10 4.477 10 10-4.477 10-10 10-10-4.477-10-10Z"/><path fill="#0ACF83" d="M0 50c0-5.523 4.477-10 10-10h10v10c0 5.523-4.477 10-10 10S0 55.523 0 50Z"/><path fill="#FF7262" d="M20 0v20h10c5.523 0 10-4.477 10-10S35.523 0 30 0H20Z"/><path fill="#F24E1E" d="M0 10c0 5.523 4.477 10 10 10h10V0H10C4.477 0 0 4.477 0 10Z"/><path fill="#A259FF" d="M0 30c0 5.523 4.477 10 10 10h10V20H10C4.477 20 0 24.477 0 30Z"/></svg>