<svg xmlns="http://www.w3.org/2000/svg" width="159" height="60" fill="none"><path fill="#3D3D3D" d="m117.02 49.252 4.593-11.64h13.264l-6.295-17.66L136.454 0 159 60h-16.627l-3.854-10.748H117.02Z"/><path fill="#6C3BAA" d="M102.834 60 126.97 0h-15.999L94.459 38.773 82.717 0h-12.3L57.81 38.773l-8.89-17.667-8.047 24.841L49.044 60h15.749l11.39-34.77L87.053 60h15.781Z"/><path fill="#3D3D3D" d="M15.189 39.401h9.857a29.064 29.064 0 0 0 7.974-.999l9.674-29.87a17.302 17.302 0 0 0-1.863-2.444C37.179 2.03 31.829 0 24.78 0H0v60h15.189V39.401Zm13.043-25.597c1.428 1.44 2.143 3.369 2.143 5.786 0 2.418-.628 4.348-1.882 5.793-1.377 1.585-3.913 2.378-7.609 2.378H15.19V11.64h5.739c3.438 0 5.874.72 7.307 2.163h-.003Z"/></svg>