<svg xmlns="http://www.w3.org/2000/svg" width="51" height="60" fill="none"><path fill="url(#a)" d="M25.5 29.943c8.367 0 15.151-6.703 15.151-14.971C40.651 6.703 33.867 0 25.5 0c-8.368 0-15.152 6.703-15.152 14.972 0 8.268 6.784 14.971 15.152 14.971Z"/><path fill="url(#b)" d="M24.208 59.635A72.608 72.608 0 0 1 .214 34.853a1.66 1.66 0 0 1-.136-1.32c.14-.44.456-.803.875-1.005l11.475-5.564a1.71 1.71 0 0 1 2.217.671c5.8 9.608 14.38 17.28 24.63 22.03a73.312 73.312 0 0 1-12.485 9.97 2.463 2.463 0 0 1-2.582 0Z"/><path fill="#2684FF" d="M26.79 59.635a72.558 72.558 0 0 0 23.994-24.782 1.66 1.66 0 0 0 .14-1.318 1.684 1.684 0 0 0-.87-1.007L38.57 26.964a1.71 1.71 0 0 0-2.217.671c-5.8 9.609-14.378 17.281-24.63 22.03a72.892 72.892 0 0 0 12.485 9.97c.79.487 1.792.487 2.582 0Z"/><defs><linearGradient id="a" x1="2550" x2="2550" y1="997.197" y2="7156.95" gradientUnits="userSpaceOnUse"><stop stop-color="#2684FF"/><stop offset=".82" stop-color="#0052CC"/></linearGradient><linearGradient id="b" x1="2100.16" x2="3816.46" y1="1869.62" y2="4482.19" gradientUnits="userSpaceOnUse"><stop stop-color="#2684FF"/><stop offset=".62" stop-color="#0052CC"/></linearGradient></defs></svg>