<svg xmlns="http://www.w3.org/2000/svg" width="48" height="60" fill="none"><g clip-path="url(#a)"><path fill="#42A5F5" fill-opacity=".8" d="M9.149 39.237 0 29.997 29.705 0H48m0 27.682H29.705l-6.853 6.92 9.149 9.24"/><path fill="#0D47A1" d="M22.852 53.079 29.705 60H48L32 43.842"/><path fill="#42A5F5" d="m13.725 43.847 9.134-9.227 9.134 9.224-9.134 9.228-9.134-9.225Z"/><path fill="url(#b)" d="m22.86 53.072 9.134-9.225 1.275 1.288-9.135 9.224-1.275-1.287Z"/><path fill="url(#c)" d="m22.852 53.079 13.574-4.736-4.425-4.503"/></g><defs><linearGradient id="b" x1="27.428" x2="28.716" y1="48.458" y2="49.733" gradientUnits="userSpaceOnUse"><stop offset=".2" stop-opacity=".15"/><stop offset=".85" stop-color="#616161" stop-opacity=".01"/></linearGradient><linearGradient id="c" x1="22.855" x2="36.429" y1="48.459" y2="48.459" gradientUnits="userSpaceOnUse"><stop offset=".2" stop-opacity=".55"/><stop offset=".85" stop-color="#616161" stop-opacity=".01"/></linearGradient><clipPath id="a"><path fill="#fff" d="M0 0h48v60H0z"/></clipPath></defs></svg>