<svg xmlns="http://www.w3.org/2000/svg" width="68" height="60" fill="none"><path fill="#362D59" d="M39.41 3.079a6.357 6.357 0 0 0-10.891 0L19.56 18.433a43.884 43.884 0 0 1 24.165 36.322h-6.29A37.711 37.711 0 0 0 16.39 23.8L8.098 38.147a21.687 21.687 0 0 1 12.565 16.58H6.22a1.035 1.035 0 0 1-.844-1.512l4.002-6.812a14.619 14.619 0 0 0-4.574-2.588L.84 50.626a6.19 6.19 0 0 0 2.301 8.502 6.34 6.34 0 0 0 3.077.817H26a26.438 26.438 0 0 0-10.89-23.583l3.145-5.45a32.528 32.528 0 0 1 14.022 29.033h16.76a48.893 48.893 0 0 0-22.341-43.324l6.357-10.9a1.048 1.048 0 0 1 1.43-.367c.721.395 27.623 47.37 28.127 47.915a1.036 1.036 0 0 1-.926 1.54h-6.48a54.999 54.999 0 0 1 0 5.19h6.507A6.248 6.248 0 0 0 68 53.72c0-1.092-.29-2.165-.844-3.106L39.41 3.079Z"/></svg>