<svg xmlns="http://www.w3.org/2000/svg" width="60" height="60" fill="none"><g clip-path="url(#a)"><path fill="#01579B" d="M12.237 47.763 1.976 37.502C.754 36.25 0 34.482 0 32.762c0-.799.45-2.048.79-2.763l9.471-19.738 1.976 37.502Z"/><path fill="#40C4FF" d="M47.368 12.237 37.108 1.976C36.21 1.074 34.344 0 32.764 0c-1.358 0-2.69.273-3.55.79L10.27 10.26l37.098 1.976ZM24.473 60h24.87V49.343l-18.554-5.924-16.974 5.924L24.473 60Z"/><path fill="#29B6F6" d="M10.261 42.237c0 3.167.397 3.944 1.972 5.527l1.579 1.58h35.53L31.977 29.607 10.261 10.26v31.976Z"/><path fill="#01579B" d="M41.844 10.261H10.26l39.082 39.077H60V24.865L47.368 12.232c-1.775-1.778-3.35-1.971-5.524-1.971Z"/><path fill="#fff" d="M12.633 48.156c-1.578-1.584-1.97-3.146-1.97-5.919v-31.58l-.393-.396v31.976c0 2.774 0 3.543 2.363 5.92l1.183 1.182-1.183-1.183Z" opacity=".2"/><path fill="#263238" d="M59.607 24.473v24.472H48.95l.393.398H60V24.865l-.393-.392Z" opacity=".2"/><path fill="#fff" d="M47.368 12.237c-1.955-1.96-3.557-1.976-5.917-1.976H10.27l.392.393h30.79c1.177 0 4.15-.198 5.919 1.58l-.003.003Z" opacity=".2"/><path fill="url(#b)" d="m59.608 24.473-12.24-12.236L37.107 1.976C36.211 1.074 34.345 0 32.765 0c-1.358 0-2.69.273-3.55.79L10.27 10.26.793 30C.455 30.72 0 31.967 0 32.761c0 1.725.759 3.485 1.971 4.737l9.463 9.393c.252.305.52.597.803.873l.393.393 1.18 1.182L24.073 59.6l.392.393H49.33V49.338h10.657V24.865l-.38-.392Z" opacity=".2"/></g><defs><radialGradient id="b" cx="0" cy="0" r="1" gradientTransform="translate(29.998 29.997) scale(29.9958)" gradientUnits="userSpaceOnUse"><stop stop-color="#fff" stop-opacity=".1"/><stop offset="1" stop-color="#fff" stop-opacity="0"/></radialGradient><clipPath id="a"><path fill="#fff" d="M0 0h60v60H0z"/></clipPath></defs></svg>