<svg xmlns="http://www.w3.org/2000/svg" width="49" height="60" fill="none"><path fill="#FF4785" d="M1.86 55.288.003 5.763A3.017 3.017 0 0 1 2.83 2.639L44.953.006a3.017 3.017 0 0 1 3.205 3.01v53.967a3.017 3.017 0 0 1-3.152 3.014L4.74 58.188a3.017 3.017 0 0 1-2.88-2.9Z"/><mask id="a" width="49" height="60" x="0" y="0" maskUnits="userSpaceOnUse" style="mask-type:luminance"><path fill="#fff" d="M1.86 55.288.003 5.763A3.017 3.017 0 0 1 2.83 2.639L44.953.006a3.017 3.017 0 0 1 3.205 3.01v53.967a3.017 3.017 0 0 1-3.152 3.014L4.74 58.188a3.017 3.017 0 0 1-2.88-2.9Z"/></mask><g mask="url(#a)"><path fill="#fff" d="m35.561 7.375.288-6.92L41.634 0l.25 7.137a.45.45 0 0 1-.73.369l-2.23-1.757-2.641 2.003a.45.45 0 0 1-.722-.377Zm-7.398 15.24c0 1.174 7.905.611 8.966-.213 0-7.993-4.288-12.193-12.14-12.193-7.854 0-12.254 4.266-12.254 10.663 0 11.143 15.038 11.356 15.038 17.434 0 1.706-.836 2.72-2.674 2.72-2.394 0-3.341-1.224-3.23-5.382 0-.902-9.134-1.184-9.412 0-.71 10.077 5.57 12.984 12.754 12.984 6.962 0 12.42-3.71 12.42-10.428 0-11.943-15.26-11.623-15.26-17.54 0-2.4 1.782-2.72 2.84-2.72 1.114 0 3.119.196 2.952 4.675Z"/></g></svg>