<svg xmlns="http://www.w3.org/2000/svg" width="55" height="60" fill="none"><path fill="#61DAFB" d="M54.4 24.168c0-3.595-4.5-7.001-11.401-9.114C44.59 8.019 43.883 2.422 40.765.63c-.72-.42-1.56-.619-2.477-.619v2.467c.508 0 .918.1 1.26.287 1.504.863 2.157 4.148 1.648 8.373a33.979 33.979 0 0 1-.564 3.252 53.586 53.586 0 0 0-7.022-1.205 53.93 53.93 0 0 0-4.6-5.53c3.604-3.352 6.988-5.188 9.289-5.188V0c-3.042 0-7.023 2.168-11.048 5.929C23.226 2.19 19.245.044 16.203.044v2.467c2.29 0 5.685 1.825 9.29 5.154a52.241 52.241 0 0 0-4.568 5.52c-2.499.265-4.865.674-7.033 1.216a33.358 33.358 0 0 1-.575-3.207c-.52-4.226.122-7.51 1.615-8.385.331-.199.763-.287 1.271-.287V.055c-.928 0-1.769.2-2.499.62-3.107 1.792-3.804 7.377-2.2 14.39C4.624 17.189.145 20.585.145 24.168c0 3.595 4.501 7.002 11.402 9.114-1.593 7.035-.885 12.632 2.234 14.424.719.42 1.559.62 2.488.62 3.04 0 7.022-2.169 11.047-5.93 4.026 3.74 8.007 5.885 11.048 5.885.929 0 1.77-.199 2.5-.62 3.107-1.791 3.803-7.377 2.2-14.39C49.92 31.16 54.4 27.751 54.4 24.168Zm-14.398-7.377a49.802 49.802 0 0 1-1.493 4.369 52.316 52.316 0 0 0-1.449-2.655 59.852 59.852 0 0 0-1.592-2.588c1.57.232 3.085.52 4.534.874Zm-5.065 11.78a58.865 58.865 0 0 1-2.665 4.225 57.567 57.567 0 0 1-4.999.22c-1.67 0-3.34-.076-4.976-.21a60.915 60.915 0 0 1-2.677-4.202 57.69 57.69 0 0 1-2.3-4.402 57.637 57.637 0 0 1 2.29-4.414 58.894 58.894 0 0 1 2.665-4.225 57.527 57.527 0 0 1 4.998-.222c1.67 0 3.34.078 4.976.21a60.891 60.891 0 0 1 2.677 4.204 57.602 57.602 0 0 1 2.3 4.402 61.913 61.913 0 0 1-2.29 4.413Zm3.572-1.438c.58 1.441 1.09 2.91 1.526 4.402a49.586 49.586 0 0 1-4.556.885 61.234 61.234 0 0 0 1.592-2.622c.509-.885.984-1.78 1.438-2.665ZM27.295 38.935a45.624 45.624 0 0 1-3.074-3.54 68.36 68.36 0 0 0 3.041.077c1.04 0 2.068-.022 3.075-.077a43.208 43.208 0 0 1-3.042 3.54Zm-8.227-6.515a49.876 49.876 0 0 1-4.534-.874 49.792 49.792 0 0 1 1.492-4.37c.454.886.93 1.77 1.449 2.655a72.23 72.23 0 0 0 1.593 2.589ZM27.24 9.402a45.561 45.561 0 0 1 3.074 3.54 68.508 68.508 0 0 0-3.04-.078c-1.04 0-2.069.022-3.075.077a43.203 43.203 0 0 1 3.041-3.54Zm-8.184 6.515a61.164 61.164 0 0 0-3.03 5.276 47.34 47.34 0 0 1-1.525-4.402 53.686 53.686 0 0 1 4.555-.874ZM9.048 29.765c-3.914-1.67-6.447-3.86-6.447-5.597 0-1.736 2.533-3.938 6.447-5.597.951-.409 1.991-.774 3.064-1.117A53.139 53.139 0 0 0 14.6 24.19a52.38 52.38 0 0 0-2.455 6.703 33.624 33.624 0 0 1-3.097-1.128Zm5.95 15.806c-1.504-.863-2.156-4.148-1.648-8.373.122-1.04.32-2.135.564-3.252 2.168.53 4.534.94 7.022 1.206a53.944 53.944 0 0 0 4.601 5.53c-3.605 3.352-6.99 5.188-9.29 5.188-.497-.011-.917-.111-1.249-.299Zm26.231-8.428c.52 4.225-.121 7.51-1.614 8.384-.332.199-.763.287-1.272.287-2.29 0-5.684-1.825-9.29-5.154a52.224 52.224 0 0 0 4.568-5.52c2.5-.265 4.866-.674 7.033-1.216.255 1.117.454 2.19.575 3.219Zm4.258-7.378c-.951.41-1.99.774-3.064 1.117a53.144 53.144 0 0 0-2.488-6.736 52.342 52.342 0 0 0 2.455-6.703c1.095.343 2.135.72 3.108 1.128 3.915 1.67 6.447 3.86 6.447 5.597-.011 1.737-2.544 3.938-6.458 5.597Z"/><path fill="#61DAFB" d="M27.262 29.223a5.054 5.054 0 1 0 0-10.109 5.054 5.054 0 0 0 0 10.11ZM2.61 57.03H.94v2.873H0v-7.104h2.351c.8 0 1.415.183 1.844.547.433.364.649.894.649 1.59 0 .443-.12.828-.361 1.157-.237.328-.57.574-.995.736l1.668 3.016v.058H4.151L2.61 57.03Zm-1.67-.769h1.44c.465 0 .834-.12 1.107-.36.276-.241.414-.563.414-.967 0-.439-.131-.775-.395-1.01-.26-.234-.637-.352-1.131-.356H.94v2.694ZM8.21 60c-.716 0-1.298-.234-1.747-.703-.448-.471-.673-1.1-.673-1.888v-.166c0-.523.1-.99.298-1.4a2.34 2.34 0 0 1 .839-.966 2.11 2.11 0 0 1 1.17-.352c.687 0 1.22.227 1.6.679.381.452.571 1.1.571 1.941v.376H6.693c.013.52.164.942.453 1.264.293.319.664.478 1.113.478.318 0 .588-.065.81-.195.22-.13.414-.302.58-.517l.551.43C9.758 59.66 9.094 60 8.21 60Zm-.112-4.733a1.2 1.2 0 0 0-.918.4c-.247.264-.4.635-.458 1.113h2.644v-.069c-.026-.458-.15-.813-.37-1.063-.222-.254-.521-.38-.898-.38Zm6.478 4.635c-.053-.104-.095-.29-.127-.556-.42.436-.92.654-1.503.654-.52 0-.947-.146-1.283-.44a1.44 1.44 0 0 1-.497-1.121c0-.55.208-.976.624-1.279.42-.306 1.008-.458 1.766-.458h.878v-.415c0-.316-.094-.566-.283-.751-.188-.19-.467-.283-.834-.283-.322 0-.592.08-.81.244-.217.162-.326.359-.326.59h-.908c0-.264.093-.517.278-.761a1.93 1.93 0 0 1 .761-.586 2.577 2.577 0 0 1 1.059-.215c.608 0 1.084.153 1.429.46.345.302.523.72.536 1.253v2.43c0 .485.062.87.186 1.156v.078h-.946Zm-1.498-.688c.283 0 .551-.073.805-.22a1.33 1.33 0 0 0 .551-.57v-1.083h-.707c-1.106 0-1.659.323-1.659.97 0 .284.095.505.283.664.189.16.431.24.727.24Zm5.79.05a1.3 1.3 0 0 0 .844-.294c.24-.195.374-.439.4-.731h.854c-.016.302-.12.59-.312.863a2.05 2.05 0 0 1-.771.654 2.2 2.2 0 0 1-1.015.244c-.718 0-1.29-.24-1.717-.717-.422-.482-.634-1.139-.634-1.971v-.152c0-.514.094-.97.283-1.37.189-.4.458-.711.81-.933.354-.22.772-.331 1.253-.331.592 0 1.083.177 1.474.531.393.355.603.815.629 1.381h-.854a1.23 1.23 0 0 0-.39-.839 1.193 1.193 0 0 0-.859-.332c-.458 0-.814.166-1.068.498-.25.328-.376.805-.376 1.43v.17c0 .608.126 1.077.376 1.405.25.329.608.493 1.073.493Zm4.337-5.919v1.278h.985v.698h-.985v3.274c0 .211.044.37.132.478.087.104.237.156.448.156.104 0 .247-.02.43-.059v.732a2.613 2.613 0 0 1-.693.098c-.403 0-.707-.122-.912-.366-.205-.244-.308-.59-.308-1.04v-3.273h-.96v-.698h.96v-1.278h.903Zm10.122 6.557h-.942l-3.575-5.474v5.474h-.942v-7.104h.942l3.585 5.5v-5.5h.932v7.104Zm4.78 0c-.052-.104-.094-.29-.127-.556-.42.436-.92.654-1.502.654-.52 0-.948-.146-1.283-.44a1.44 1.44 0 0 1-.497-1.121c0-.55.208-.976.624-1.279.42-.306 1.008-.458 1.766-.458h.878v-.415c0-.316-.095-.566-.283-.751-.189-.19-.467-.283-.834-.283-.322 0-.592.08-.81.244-.218.162-.327.359-.327.59h-.907c0-.264.093-.517.278-.761a1.93 1.93 0 0 1 .761-.586 2.577 2.577 0 0 1 1.058-.215c.608 0 1.085.153 1.43.46.344.302.523.72.536 1.253v2.43c0 .485.062.87.186 1.156v.078h-.947Zm-1.497-.688c.283 0 .551-.073.805-.22a1.33 1.33 0 0 0 .55-.57v-1.083h-.707c-1.105 0-1.658.323-1.658.97 0 .284.094.505.283.664.188.16.43.24.727.24Zm4.897-5.869v1.278h.986v.698h-.986v3.274c0 .211.044.37.132.478.088.104.237.156.449.156.104 0 .247-.02.43-.059v.732a2.617 2.617 0 0 1-.694.098c-.403 0-.707-.122-.912-.366-.205-.244-.307-.59-.307-1.04v-3.273h-.961v-.698h.96v-1.278h.903Zm3.025 6.557h-.903v-5.279h.903v5.28Zm-.976-6.68c0-.145.044-.269.132-.37.09-.1.224-.151.4-.151.175 0 .309.05.4.151.09.101.136.225.136.37a.516.516 0 0 1-.136.367c-.091.097-.224.146-.4.146-.176 0-.31-.049-.4-.146a.527.527 0 0 1-.132-.366Zm4.166 5.456 1.307-4.055h.922l-1.892 5.28h-.688l-1.912-5.28h.921l1.342 4.055ZM52.942 60c-.716 0-1.298-.234-1.747-.703-.449-.471-.673-1.1-.673-1.888v-.166c0-.523.1-.99.297-1.4a2.34 2.34 0 0 1 .84-.966 2.11 2.11 0 0 1 1.17-.352c.686 0 1.22.227 1.6.679.38.452.571 1.1.571 1.941v.376h-3.576c.013.52.165.942.454 1.264.293.319.663.478 1.112.478.319 0 .589-.065.81-.195.221-.13.415-.302.58-.517l.552.43c-.443.679-1.106 1.019-1.99 1.019Zm-.113-4.733a1.2 1.2 0 0 0-.917.4c-.247.264-.4.635-.458 1.113h2.643v-.069c-.026-.458-.15-.813-.37-1.063-.221-.254-.52-.38-.898-.38Z"/></svg>