<svg xmlns="http://www.w3.org/2000/svg" width="53" height="60" fill="none"><path fill="#5C8DBC" d="M52.997 17.64c0-1.009-.214-1.9-.648-2.665-.425-.753-1.062-1.383-1.917-1.882C43.376 8.995 36.314 4.91 29.26.808c-1.902-1.106-3.745-1.066-5.633.056C20.82 2.532 6.758 10.646 2.568 13.09.843 14.097.003 15.637.003 17.638 0 25.88.003 34.12 0 42.362c0 .986.206 1.86.62 2.614.425.775 1.072 1.423 1.946 1.933 4.19 2.445 18.253 10.558 21.06 12.227 1.889 1.122 3.732 1.162 5.635.056 7.053-4.102 14.116-8.188 21.173-12.285.875-.51 1.52-1.158 1.947-1.933.413-.753.619-1.628.619-2.615 0 0 0-16.478-.003-24.719Z"/><path fill="#1A4674" d="M26.581 29.92.62 44.976c.425.775 1.072 1.423 1.946 1.933 4.19 2.445 18.253 10.558 21.06 12.227 1.889 1.122 3.732 1.162 5.635.056 7.053-4.102 14.116-8.188 21.173-12.285.875-.51 1.52-1.158 1.947-1.933L26.58 29.92Z"/><path fill="#1A4674" d="M18.892 34.38c1.51 2.656 4.35 4.448 7.608 4.448 3.278 0 6.134-1.815 7.637-4.5l-7.556-4.408-7.69 4.46Z"/><path fill="#1B598E" d="M52.997 17.64c0-1.009-.214-1.9-.648-2.665L26.581 29.92l25.8 15.054c.413-.753.619-1.628.619-2.615 0 0 0-16.478-.003-24.719Z"/><path fill="#fff" d="M51.579 30.996h-2.016v2.03h-2.017v-2.03H45.53v-2.03h2.016v-2.031h2.017v2.03h2.016v2.03Zm-7.357 0h-2.016v2.03H40.19v-2.03h-2.016v-2.03h2.016v-2.031h2.016v2.03h2.016v2.03Z"/><path fill="#fff" d="M34.137 34.328c-1.503 2.685-4.36 4.5-7.637 4.5-3.258 0-6.098-1.792-7.608-4.449A8.835 8.835 0 0 1 17.736 30c0-4.875 3.924-8.827 8.764-8.827 3.237 0 6.062 1.77 7.58 4.399l7.66-4.443c-3.044-5.294-8.729-8.856-15.24-8.856-9.72 0-17.6 7.937-17.6 17.728 0 3.212.848 6.224 2.33 8.822 3.038 5.322 8.738 8.906 15.27 8.906 6.544 0 12.253-3.598 15.286-8.936l-7.649-4.464Z"/></svg>