<svg width="28" height="28" viewBox="0 0 28 28" fill="none" xmlns="http://www.w3.org/2000/svg">
<g id="Logo">
<g id="Logo/Dribbble" clip-path="url(#clip0_3010_10081)">
<path id="Vector" d="M14.0008 0.929688C21.2195 0.929688 27.0602 6.77031 27.0602 13.9781C27.0602 21.1859 21.2195 27.0375 14.0008 27.0375C6.78203 27.0375 0.941406 21.1969 0.941406 13.9891C0.941406 6.78125 6.78203 0.929688 14.0008 0.929688Z" fill="#E74D89"/>
<path id="Vector_2" d="M14 27.9672C6.27813 27.9672 0 21.7 0 13.9891C0 6.26719 6.27813 0 14 0C21.7219 0 28 6.26719 28 13.9781C28 21.6891 21.7219 27.9672 14 27.9672ZM25.8016 15.8922C25.3969 15.7609 22.1047 14.7875 18.3531 15.3781C19.9172 19.6656 20.5516 23.1656 20.6719 23.8875C23.3625 22.0828 25.2766 19.2172 25.8016 15.8922ZM18.6703 24.9922C18.4953 23.9422 17.7953 20.2891 16.1219 15.9359C16.1 15.9469 16.0672 15.9578 16.0453 15.9578C9.29688 18.3094 6.87969 22.9797 6.66094 23.4172C8.68437 24.9922 11.2328 25.9328 14 25.9328C15.6516 25.9438 17.2375 25.6047 18.6703 24.9922ZM5.11875 21.9844C5.39219 21.525 8.67344 16.1 14.8422 14.0984C14.9953 14.0437 15.1594 14 15.3125 13.9563C15.0172 13.2781 14.6891 12.6 14.3391 11.9328C8.36719 13.7156 2.57031 13.6391 2.04531 13.6281C2.04531 13.7484 2.03437 13.8688 2.03437 13.9891C2.04531 17.0625 3.20469 19.8625 5.11875 21.9844ZM2.29688 11.55C2.83281 11.5609 7.75469 11.5828 13.3547 10.0953C11.375 6.57344 9.23125 3.62031 8.925 3.19375C5.56719 4.76875 3.07344 7.85313 2.29688 11.55ZM11.2 2.38437C11.5281 2.82187 13.7047 5.775 15.6625 9.37344C19.9172 7.77656 21.7109 5.37031 21.9297 5.06406C19.8188 3.19375 17.0406 2.05625 14 2.05625C13.0375 2.05625 12.0969 2.17656 11.2 2.38437ZM23.2531 6.44219C23.0016 6.78125 21 9.35156 16.5813 11.1562C16.8547 11.725 17.1281 12.3047 17.3797 12.8844C17.4672 13.0922 17.5547 13.3 17.6422 13.4969C21.6234 12.9938 25.5719 13.8031 25.9656 13.8797C25.9328 11.0688 24.9266 8.47656 23.2531 6.44219Z" fill="#B2215A"/>
</g>
</g>
<defs>
<clipPath id="clip0_3010_10081">
<rect width="28" height="28" fill="white"/>
</clipPath>
</defs>
</svg>
