<svg width="132" height="24" viewBox="0 0 132 24" fill="none" xmlns="http://www.w3.org/2000/svg">
<path d="M7.8912 23.2704C6.4128 23.2704 5.088 23.0304 3.9168 22.5504C2.7456 22.0704 1.8048 21.36 1.0944 20.4192C0.4032 19.4784 0.0384 18.3456 0 17.0208H5.2416C5.3184 17.7696 5.5776 18.3456 6.0192 18.7488C6.4608 19.1328 7.0368 19.3248 7.7472 19.3248C8.4768 19.3248 9.0528 19.1616 9.4752 18.8352C9.8976 18.4896 10.1088 18.0192 10.1088 17.424C10.1088 16.9248 9.936 16.512 9.5904 16.1856C9.264 15.8592 8.8512 15.5904 8.352 15.3792C7.872 15.168 7.1808 14.928 6.2784 14.6592C4.9728 14.256 3.9072 13.8528 3.0816 13.4496C2.256 13.0464 1.5456 12.4512 0.9504 11.664C0.3552 10.8768 0.0576 9.84961 0.0576 8.58241C0.0576 6.70081 0.7392 5.23201 2.1024 4.176C3.4656 3.1008 5.2416 2.5632 7.4304 2.5632C9.6576 2.5632 11.4528 3.1008 12.816 4.176C14.1792 5.23201 14.9088 6.71041 15.0048 8.61121H9.6768C9.6384 7.95841 9.3984 7.44961 8.9568 7.08481C8.5152 6.70081 7.9488 6.50881 7.2576 6.50881C6.6624 6.50881 6.1824 6.67201 5.8176 6.99841C5.4528 7.30561 5.2704 7.75681 5.2704 8.35201C5.2704 9.00481 5.5776 9.51361 6.192 9.87841C6.8064 10.2432 7.7664 10.6368 9.072 11.0592C10.3776 11.5008 11.4336 11.9232 12.24 12.3264C13.0656 12.7296 13.776 13.3152 14.3712 14.0832C14.9664 14.8512 15.264 15.84 15.264 17.0496C15.264 18.2016 14.9664 19.248 14.3712 20.1888C13.7952 21.1296 12.9504 21.8784 11.8368 22.4352C10.7232 22.992 9.408 23.2704 7.8912 23.2704ZM20.7715 5.32801C19.9075 5.32801 19.1971 5.07841 18.6403 4.57921C18.1027 4.0608 17.8339 3.4272 17.8339 2.6784C17.8339 1.9104 18.1027 1.2768 18.6403 0.777601C19.1971 0.259201 19.9075 0 20.7715 0C21.6163 0 22.3075 0.259201 22.8451 0.777601C23.4019 1.2768 23.6803 1.9104 23.6803 2.6784C23.6803 3.4272 23.4019 4.0608 22.8451 4.57921C22.3075 5.07841 21.6163 5.32801 20.7715 5.32801ZM23.2195 6.99841V23.0688H18.2947V6.99841H23.2195ZM25.8093 15.0048C25.8093 13.3536 26.1165 11.904 26.7309 10.656C27.3645 9.40801 28.2189 8.44801 29.2941 7.77601C30.3693 7.10401 31.5693 6.76801 32.8941 6.76801C33.9501 6.76801 34.91 6.98881 35.774 7.43041C36.6572 7.87201 37.3484 8.46721 37.8476 9.21601V1.7568H42.7724V23.0688H37.8476V20.7648C37.3868 21.5328 36.7244 22.1472 35.8605 22.608C35.0156 23.0688 34.0269 23.2992 32.8941 23.2992C31.5693 23.2992 30.3693 22.9632 29.2941 22.2912C28.2189 21.6 27.3645 20.6304 26.7309 19.3824C26.1165 18.1152 25.8093 16.656 25.8093 15.0048ZM37.8476 15.0336C37.8476 13.8048 37.502 12.8352 36.8108 12.1248C36.1389 11.4144 35.3133 11.0592 34.334 11.0592C33.3549 11.0592 32.5196 11.4144 31.8284 12.1248C31.1565 12.816 30.8205 13.776 30.8205 15.0048C30.8205 16.2336 31.1565 17.2128 31.8284 17.9424C32.5196 18.6528 33.3549 19.008 34.334 19.008C35.3133 19.008 36.1389 18.6528 36.8108 17.9424C37.502 17.232 37.8476 16.2624 37.8476 15.0336ZM61.4842 14.7744C61.4842 15.2352 61.4554 15.7152 61.3978 16.2144H50.2522C50.329 17.2128 50.6458 17.9808 51.2026 18.5184C51.7786 19.0368 52.4794 19.296 53.305 19.296C54.5338 19.296 55.3882 18.7776 55.8682 17.7408H61.1098C60.841 18.7968 60.3514 19.7472 59.641 20.592C58.9498 21.4368 58.0762 22.0992 57.0202 22.5792C55.9642 23.0592 54.7834 23.2992 53.4778 23.2992C51.9034 23.2992 50.5018 22.9632 49.273 22.2912C48.0442 21.6192 47.0842 20.6592 46.393 19.4112C45.7018 18.1632 45.3562 16.704 45.3562 15.0336C45.3562 13.3632 45.6922 11.904 46.3642 10.656C47.0554 9.40801 48.0154 8.44801 49.2442 7.77601C50.473 7.10401 51.8842 6.76801 53.4778 6.76801C55.033 6.76801 56.4154 7.09441 57.625 7.74721C58.8346 8.40001 59.7754 9.33121 60.4474 10.5408C61.1386 11.7504 61.4842 13.1616 61.4842 14.7744ZM56.4442 13.4784C56.4442 12.6336 56.1562 11.9616 55.5802 11.4624C55.0042 10.9632 54.2842 10.7136 53.4202 10.7136C52.5946 10.7136 51.8938 10.9536 51.3178 11.4336C50.761 11.9136 50.4154 12.5952 50.281 13.4784H56.4442Z" fill="#2563EB"/>
<path d="M71.6564 2.85156C73.7876 2.85156 75.65 3.27396 77.2436 4.11876C78.8372 4.96356 80.066 6.15396 80.93 7.68996C81.8132 9.20676 82.2548 10.9636 82.2548 12.9604C82.2548 14.938 81.8132 16.6948 80.93 18.2308C80.066 19.7668 78.8276 20.9572 77.2148 21.802C75.6212 22.6468 73.7684 23.0692 71.6564 23.0692H64.082V2.85156H71.6564ZM71.3396 18.8068C73.202 18.8068 74.6516 18.298 75.6884 17.2804C76.7252 16.2628 77.2436 14.8228 77.2436 12.9604C77.2436 11.098 76.7252 9.64836 75.6884 8.61156C74.6516 7.57476 73.202 7.05636 71.3396 7.05636H69.0068V18.8068H71.3396ZM92.3222 23.2996C90.7478 23.2996 89.327 22.9636 88.0598 22.2916C86.8118 21.6196 85.823 20.6596 85.0934 19.4116C84.383 18.1636 84.0278 16.7044 84.0278 15.034C84.0278 13.3828 84.3926 11.9332 85.1222 10.6852C85.8518 9.41796 86.8502 8.44836 88.1174 7.77636C89.3846 7.10436 90.8054 6.76836 92.3798 6.76836C93.9542 6.76836 95.375 7.10436 96.6422 7.77636C97.9094 8.44836 98.9078 9.41796 99.6374 10.6852C100.367 11.9332 100.732 13.3828 100.732 15.034C100.732 16.6852 100.357 18.1444 99.6086 19.4116C98.879 20.6596 97.871 21.6196 96.5846 22.2916C95.3174 22.9636 93.8966 23.2996 92.3222 23.2996ZM92.3222 19.0372C93.263 19.0372 94.0598 18.6916 94.7126 18.0004C95.3846 17.3092 95.7206 16.3204 95.7206 15.034C95.7206 13.7476 95.3942 12.7588 94.7414 12.0676C94.1078 11.3764 93.3206 11.0308 92.3798 11.0308C91.4198 11.0308 90.623 11.3764 89.9894 12.0676C89.3558 12.7396 89.039 13.7284 89.039 15.034C89.039 16.3204 89.3462 17.3092 89.9606 18.0004C90.5942 18.6916 91.3814 19.0372 92.3222 19.0372ZM110.66 23.2996C109.085 23.2996 107.664 22.9636 106.397 22.2916C105.149 21.6196 104.16 20.6596 103.431 19.4116C102.72 18.1636 102.365 16.7044 102.365 15.034C102.365 13.3828 102.73 11.9332 103.46 10.6852C104.189 9.41796 105.188 8.44836 106.455 7.77636C107.722 7.10436 109.143 6.76836 110.717 6.76836C112.292 6.76836 113.712 7.10436 114.98 7.77636C116.247 8.44836 117.245 9.41796 117.975 10.6852C118.704 11.9332 119.069 13.3828 119.069 15.034C119.069 16.6852 118.695 18.1444 117.946 19.4116C117.216 20.6596 116.208 21.6196 114.922 22.2916C113.655 22.9636 112.234 23.2996 110.66 23.2996ZM110.66 19.0372C111.6 19.0372 112.397 18.6916 113.05 18.0004C113.722 17.3092 114.058 16.3204 114.058 15.034C114.058 13.7476 113.732 12.7588 113.079 12.0676C112.445 11.3764 111.658 11.0308 110.717 11.0308C109.757 11.0308 108.96 11.3764 108.327 12.0676C107.693 12.7396 107.376 13.7284 107.376 15.034C107.376 16.3204 107.684 17.3092 108.298 18.0004C108.932 18.6916 109.719 19.0372 110.66 19.0372ZM126.607 9.67716C127.183 8.79396 127.903 8.10276 128.767 7.60356C129.631 7.08516 130.591 6.82596 131.647 6.82596V12.0388H130.293C129.064 12.0388 128.143 12.3076 127.528 12.8452C126.914 13.3636 126.607 14.2852 126.607 15.61V23.0692H121.682V6.99876H126.607V9.67716Z" fill="#10B981"/>
</svg>
